<?xml version="1.0" standalone="no"?>
<!DOCTYPE svg PUBLIC "-//W3C//DTD SVG 20010904//EN"
 "http://www.w3.org/TR/2001/REC-SVG-20010904/DTD/svg10.dtd">
<svg version="1.0" xmlns="http://www.w3.org/2000/svg"
 width="800.000000pt" height="800.000000pt" viewBox="0 0 800.000000 800.000000"
 preserveAspectRatio="xMidYMid meet">
<metadata>
Created by potrace 1.14, written by Peter Selinger 2001-2017
</metadata>
<g transform="translate(0.000000,800.000000) scale(0.100000,-0.100000)"
fill="#000000" stroke="none">
<path d="M2045 7654 c-68 -22 -161 -117 -209 -216 -77 -157 -116 -364 -116
-611 0 -250 43 -519 136 -848 l49 -172 7 124 c16 281 48 543 119 974 37 225
39 235 49 235 13 0 47 -89 70 -185 13 -50 29 -102 37 -118 10 -21 11 -32 2
-49 -16 -30 -5 -111 25 -185 19 -45 25 -78 24 -120 -1 -32 2 -69 7 -83 13 -42
53 -88 89 -101 29 -11 35 -18 45 -64 15 -66 55 -114 130 -154 44 -23 66 -42
80 -69 25 -48 52 -73 129 -116 34 -19 84 -53 110 -75 59 -50 117 -71 193 -71
48 0 60 -4 69 -20 15 -28 37 -38 113 -50 35 -5 85 -19 108 -30 29 -13 66 -20
109 -20 113 0 161 -25 201 -102 11 -21 23 -38 27 -38 13 0 96 119 150 215 53
96 109 231 99 241 -3 3 -63 0 -134 -6 -247 -24 -472 15 -638 111 -100 57 -249
196 -332 309 -59 81 -153 248 -211 375 -102 224 -230 551 -271 691 -57 191
-143 265 -266 228z"/>
<path d="M1807 7626 c-34 -32 -59 -83 -117 -241 -126 -340 -204 -685 -244
-1075 -62 -597 -39 -1250 60 -1750 73 -369 219 -792 364 -1055 l50 -90 0 55
c0 154 -22 387 -45 460 -64 205 -118 486 -152 790 -15 137 -18 248 -18 650 0
312 5 548 13 661 12 155 12 186 -2 260 -39 213 -50 326 -50 529 0 174 3 220
22 308 30 136 68 239 142 380 34 63 59 121 56 129 -8 21 -51 15 -79 -11z"/>
<path d="M5859 7619 c-51 -30 -94 -100 -139 -227 -100 -285 -331 -777 -449
-954 -127 -191 -288 -342 -447 -419 -140 -68 -211 -82 -429 -83 -104 -1 -218
3 -253 8 l-63 8 7 -28 c24 -102 130 -315 201 -401 37 -46 53 -54 53 -25 0 21
40 78 70 99 12 9 64 18 134 23 72 5 123 14 138 24 13 8 48 18 78 21 75 9 111
21 127 45 11 16 25 20 67 20 77 0 137 22 208 75 35 26 93 62 130 81 65 33 109
76 122 120 4 14 24 28 54 39 66 26 149 110 157 161 10 58 13 64 31 64 27 0 80
45 98 83 9 21 16 60 16 95 0 44 8 81 30 136 39 97 45 128 31 167 -9 27 -8 41
8 83 11 28 34 97 50 152 27 90 52 136 66 122 6 -6 48 -291 86 -587 18 -147 33
-325 40 -475 5 -133 11 -248 12 -256 3 -17 98 297 131 435 49 199 86 472 86
632 0 91 -25 283 -51 393 -65 275 -256 452 -400 369z"/>
<path d="M6161 7612 c-7 -14 1 -36 38 -100 184 -315 214 -713 96 -1271 -13
-62 -14 -108 -5 -315 34 -825 -37 -1516 -207 -2016 -31 -91 -38 -131 -54 -300
-25 -262 -25 -254 10 -198 146 230 308 625 394 963 128 501 180 1126 147 1760
-24 446 -85 791 -206 1153 -69 208 -108 290 -153 320 -41 27 -48 27 -60 4z"/>
<path d="M1598 7393 c-260 -312 -419 -587 -521 -898 -28 -84 -70 -265 -64
-271 2 -2 39 49 82 113 44 66 115 156 162 204 84 86 84 87 184 305 89 194 247
619 235 631 -2 3 -38 -35 -78 -84z"/>
<path d="M6370 7439 c-1 -24 151 -455 210 -594 100 -235 112 -257 183 -327 34
-35 103 -123 152 -195 50 -73 93 -133 96 -133 19 0 -50 254 -115 424 -79 204
-213 439 -362 635 -75 99 -163 201 -164 190z"/>
<path d="M2061 6878 c-18 -124 -59 -381 -77 -483 -13 -75 -14 -101 -4 -156 17
-100 89 -239 123 -239 14 0 67 83 92 144 9 22 19 72 22 112 5 66 3 78 -26 139
-22 49 -31 82 -31 120 0 29 -7 72 -15 95 -8 24 -15 77 -15 120 0 73 -29 201
-50 223 -4 5 -13 -29 -19 -75z"/>
<path d="M5917 6865 c-19 -55 -27 -101 -27 -146 0 -39 -8 -92 -20 -129 -11
-34 -20 -83 -20 -108 0 -32 -9 -61 -30 -99 -28 -49 -31 -63 -31 -137 0 -95 22
-166 74 -239 l34 -47 20 22 c36 41 62 84 83 139 36 91 40 142 20 269 -11 63
-28 194 -40 290 -11 96 -24 195 -28 220 l-8 45 -27 -80z"/>
<path d="M1412 6656 c-146 -348 -240 -765 -293 -1301 -15 -152 -6 -579 16
-770 44 -381 134 -775 243 -1063 l39 -104 6 129 c15 292 20 1027 8 1123 -24
195 -41 434 -53 741 -17 449 1 836 57 1219 7 52 12 96 11 98 -2 1 -17 -31 -34
-72z"/>
<path d="M3616 6690 c-26 -163 -193 -421 -366 -564 l-71 -60 37 -19 c38 -20
140 -57 156 -57 23 0 95 84 178 207 52 76 107 156 124 178 30 38 31 42 29 138
-1 87 -5 106 -30 155 -15 31 -33 58 -39 59 -6 2 -14 -14 -18 -37z"/>
<path d="M4348 6708 c-37 -57 -49 -94 -58 -188 l-11 -101 34 -42 c19 -23 66
-93 105 -155 89 -141 156 -228 180 -234 25 -7 112 17 166 44 l45 23 -64 52
c-83 68 -195 198 -250 292 -49 83 -99 212 -110 284 -8 52 -16 58 -37 25z"/>
<path d="M6583 6675 c4 -11 13 -84 22 -163 56 -518 36 -1163 -60 -1907 -14
-111 -34 -1256 -22 -1245 12 11 96 230 141 369 79 241 156 587 192 861 22 167
30 639 15 841 -32 417 -97 733 -227 1109 -25 74 -51 140 -56 145 -7 7 -8 3 -5
-10z"/>
<path d="M3330 6613 c-26 -136 -97 -309 -184 -449 -25 -41 -25 -42 -6 -59 18
-17 21 -16 58 14 56 44 148 145 190 209 36 54 37 57 37 153 0 92 -2 100 -30
140 -43 60 -52 59 -65 -8z"/>
<path d="M4622 6637 c-38 -40 -52 -91 -52 -186 l0 -89 43 -59 c24 -32 82 -99
128 -147 l84 -88 24 19 24 20 -20 29 c-74 104 -170 349 -180 459 -6 71 -16 79
-51 42z"/>
<path d="M3718 6385 c-13 -14 -59 -83 -103 -153 -44 -70 -101 -155 -127 -189
-26 -35 -44 -64 -40 -67 16 -10 143 -18 182 -11 32 5 46 14 61 39 26 42 65
168 74 239 8 63 -1 167 -15 167 -5 0 -20 -11 -32 -25z"/>
<path d="M4231 6375 c-24 -89 -4 -231 52 -357 l26 -58 110 0 c76 0 111 4 111
11 0 6 -22 41 -49 78 -26 36 -75 115 -107 175 -33 59 -75 127 -95 150 l-37 41
-11 -40z"/>
<path d="M1201 6302 c-184 -366 -299 -834 -356 -1447 -17 -191 -38 -626 -33
-710 3 -56 6 -45 57 180 67 303 142 606 186 757 30 100 35 133 35 220 0 148
18 372 41 528 21 142 79 422 104 503 8 26 12 47 10 47 -3 0 -23 -35 -44 -78z"/>
<path d="M1114 6278 c-130 -184 -172 -218 -161 -133 4 25 9 57 12 72 10 47
-39 -52 -73 -148 -31 -88 -82 -314 -82 -364 0 -25 3 -23 41 27 23 29 63 76 90
103 42 44 53 65 88 170 22 66 64 173 95 238 30 64 54 117 52 117 -2 0 -29 -37
-62 -82z"/>
<path d="M6811 6213 c65 -269 99 -568 99 -867 0 -196 0 -201 35 -325 49 -178
75 -294 145 -636 34 -165 66 -306 71 -315 13 -19 4 559 -11 770 -33 454 -106
844 -215 1145 -45 124 -129 321 -145 338 -4 5 5 -45 21 -110z"/>
<path d="M2247 6194 c-18 -86 -41 -143 -80 -196 -39 -53 -3 -205 65 -275 18
-18 37 -33 44 -33 31 0 107 156 145 299 l22 81 -40 35 c-39 33 -55 61 -67 116
-3 14 -17 32 -33 39 -16 8 -30 16 -33 17 -3 2 -13 -36 -23 -83z"/>
<path d="M6873 6270 c3 -8 24 -55 45 -105 53 -121 102 -261 102 -292 0 -17 14
-39 45 -67 24 -22 67 -72 95 -111 59 -82 61 -77 30 91 -23 131 -59 257 -95
338 -29 67 -39 70 -23 8 6 -23 7 -53 4 -68 l-7 -27 -30 29 c-17 16 -58 67 -92
114 -66 92 -83 114 -74 90z"/>
<path d="M5703 6238 c-18 -11 -33 -25 -33 -32 0 -30 -54 -117 -85 -136 l-33
-20 15 -68 c29 -128 73 -235 126 -306 14 -19 15 -20 43 -1 16 10 35 26 42 34
28 35 54 109 59 173 5 62 4 71 -22 107 -34 50 -52 101 -66 193 -6 40 -12 73
-13 74 0 1 -16 -8 -33 -18z"/>
<path d="M1749 5908 c-17 -225 -17 -851 0 -1063 25 -314 62 -527 122 -710 29
-86 80 -199 100 -219 5 -6 9 155 9 405 0 251 4 446 11 494 11 78 11 83 -24
200 -79 266 -81 277 -82 455 -1 144 -4 173 -23 232 -13 36 -38 137 -57 223
-18 86 -36 159 -38 161 -2 2 -10 -78 -18 -178z"/>
<path d="M1962 6017 c-26 -172 -34 -318 -29 -487 7 -200 30 -342 76 -480 34
-100 107 -260 119 -260 4 0 6 118 4 262 -3 299 7 428 43 533 l26 74 -41 80
c-36 72 -40 88 -40 153 0 66 -1 70 -15 52 -14 -19 -15 -18 -35 6 -12 14 -35
49 -51 77 -17 29 -34 55 -39 58 -4 3 -12 -28 -18 -68z"/>
<path d="M5991 6009 c-37 -65 -81 -111 -96 -99 -9 8 -14 -6 -18 -57 -5 -52
-16 -87 -47 -148 l-42 -81 21 -61 c41 -122 45 -228 25 -687 -4 -99 -3 -126 7
-121 6 5 38 63 70 130 94 197 135 383 146 665 7 197 -15 500 -36 500 -4 0 -18
-18 -30 -41z"/>
<path d="M2452 5947 c-14 -55 -39 -122 -64 -166 -38 -70 -40 -76 -29 -113 15
-50 89 -128 122 -128 68 0 119 71 144 204 22 114 20 142 -11 162 -14 10 -34
34 -45 56 -11 21 -27 38 -36 38 -9 0 -26 9 -38 20 l-21 20 -22 -93z"/>
<path d="M6211 5940 c-32 -138 -71 -270 -89 -305 -12 -23 -16 -67 -17 -185 -2
-169 -9 -204 -93 -466 l-39 -121 10 -159 c7 -115 6 -253 -4 -501 -11 -259 -11
-339 -2 -332 20 18 91 171 122 264 81 251 127 574 152 1065 12 240 6 749 -10
806 -7 26 -10 18 -30 -66z"/>
<path d="M5491 5989 c-13 -11 -30 -18 -38 -15 -8 3 -21 -10 -34 -35 -11 -22
-34 -48 -50 -57 -27 -16 -29 -20 -24 -62 23 -183 47 -248 105 -287 49 -34 71
-29 123 26 55 59 78 122 55 148 -39 44 -98 201 -98 259 0 42 -9 47 -39 23z"/>
<path d="M2672 5822 c-6 -26 -16 -75 -23 -110 -7 -39 -27 -88 -50 -127 -43
-70 -49 -116 -24 -164 17 -34 70 -81 91 -81 29 0 113 90 133 144 17 45 41 193
41 252 0 20 -82 94 -137 122 -20 11 -22 9 -31 -36z"/>
<path d="M5260 5823 c-14 -9 -47 -32 -73 -52 l-49 -36 6 -75 c10 -111 25 -189
46 -230 19 -37 102 -120 120 -120 5 0 33 22 60 48 48 47 50 50 50 104 0 43 -4
59 -21 74 -34 31 -50 72 -73 188 -12 60 -26 111 -31 113 -6 2 -22 -4 -35 -14z"/>
<path d="M2865 5658 c-4 -40 -16 -108 -27 -151 -19 -68 -20 -86 -10 -138 12
-67 36 -106 80 -132 30 -17 31 -17 62 9 64 54 98 166 102 334 l3 102 -61 2
c-44 1 -68 8 -91 24 -17 12 -36 22 -41 22 -5 0 -13 -33 -17 -72z"/>
<path d="M5055 5689 c-24 -16 -43 -19 -94 -16 l-64 3 6 -130 c7 -162 30 -245
85 -306 43 -49 56 -48 110 14 51 58 67 160 38 231 -8 19 -18 67 -21 107 -8 89
-13 118 -23 117 -4 0 -20 -9 -37 -20z"/>
<path d="M881 5623 c-118 -179 -185 -453 -179 -733 l3 -135 30 74 c16 41 38
85 49 98 14 18 21 51 28 121 14 167 38 312 74 462 20 79 40 153 46 163 5 10 7
21 5 24 -3 2 -28 -31 -56 -74z"/>
<path d="M3116 5573 c-4 -48 -16 -119 -26 -158 -34 -119 -22 -196 36 -238 127
-93 254 99 224 338 -8 68 -15 85 -32 85 -6 0 -39 11 -72 24 -34 13 -75 27 -93
31 l-31 6 -6 -88z"/>
<path d="M2222 5633 c-21 -39 -42 -146 -48 -245 -15 -242 50 -501 167 -669 23
-32 44 -59 47 -59 2 0 1 107 -3 238 -7 244 2 420 29 535 l14 59 -43 43 c-24
23 -51 58 -60 76 -23 44 -20 42 -43 28 -16 -10 -23 -10 -35 0 -13 10 -17 9
-25 -6z"/>
<path d="M4755 5621 c-84 -31 -125 -50 -125 -58 0 -4 -4 -36 -9 -70 -10 -66 1
-187 21 -238 20 -51 48 -85 88 -105 48 -24 91 -13 133 33 25 29 27 38 27 115
0 46 -5 93 -11 104 -6 12 -13 60 -16 107 -7 146 -9 148 -108 112z"/>
<path d="M7090 5638 c0 -3 11 -53 25 -110 38 -158 63 -321 74 -479 10 -132 13
-149 44 -214 19 -38 42 -86 51 -105 15 -33 16 -25 12 180 -5 237 -18 324 -75
480 -27 72 -130 269 -131 248z"/>
<path d="M5665 5584 c-11 -20 -40 -55 -65 -77 l-45 -42 14 -60 c16 -65 21
-547 8 -700 l-7 -80 35 39 c88 99 177 336 197 528 16 144 -6 363 -41 416 -7
11 -12 12 -29 1 -15 -10 -24 -10 -34 -1 -11 9 -18 4 -33 -24z"/>
<path d="M3370 5573 c1 -51 34 -224 48 -256 21 -47 83 -107 111 -107 43 0 91
89 91 170 0 63 -8 79 -75 147 -53 52 -54 53 -114 53 -34 0 -61 -3 -61 -7z"/>
<path d="M4412 5506 l-64 -65 3 -85 c4 -81 6 -86 38 -120 19 -20 41 -36 48
-36 19 0 92 69 110 103 13 26 53 216 53 254 0 9 -17 13 -62 13 l-61 0 -65 -64z"/>
<path d="M2450 5428 c-61 -285 -1 -612 174 -953 48 -94 56 -104 51 -70 -47
356 -53 605 -19 846 l6 46 -46 12 c-58 14 -109 64 -127 125 -7 25 -17 46 -20
46 -4 0 -12 -24 -19 -52z"/>
<path d="M5505 5445 c-28 -73 -38 -92 -58 -113 -30 -33 -70 -52 -108 -52 -30
0 -31 -1 -25 -32 4 -18 9 -121 13 -228 5 -173 2 -220 -21 -415 -15 -121 -29
-229 -32 -240 l-5 -20 16 20 c26 32 140 271 179 375 60 164 80 281 79 465 0
111 -5 175 -16 210 -12 41 -16 46 -22 30z"/>
<path d="M2743 5334 c-40 -41 -41 -45 -48 -126 -13 -155 19 -290 109 -471 62
-123 158 -287 169 -287 10 0 8 251 -3 338 -6 47 -19 88 -36 117 -35 61 -54
136 -54 221 0 64 -2 73 -24 87 -27 18 -58 77 -65 128 l-6 36 -42 -43z"/>
<path d="M5188 5334 c-2 -5 -10 -28 -18 -52 -7 -23 -28 -60 -47 -81 -26 -31
-33 -48 -33 -83 0 -66 -28 -167 -62 -228 -22 -39 -35 -80 -44 -145 -15 -96
-19 -315 -6 -315 10 0 153 237 195 325 75 153 89 208 95 362 l4 141 -39 43
c-22 23 -42 38 -45 33z"/>
<path d="M3370 5215 c0 -134 45 -265 127 -367 53 -66 68 -63 59 10 -4 31 -9
109 -12 172 l-4 115 -33 13 c-50 21 -95 60 -117 100 l-19 37 -1 -80z"/>
<path d="M4576 5251 c-20 -38 -77 -86 -119 -100 l-35 -12 -6 -92 c-3 -51 -9
-129 -12 -174 -4 -54 -3 -83 4 -83 16 0 91 99 122 160 15 30 35 80 44 110 17
56 34 220 23 220 -4 0 -13 -13 -21 -29z"/>
<path d="M3015 5229 c-9 -17 -31 -37 -51 -45 -19 -8 -37 -21 -41 -30 -3 -8 0
-49 6 -92 15 -106 65 -204 140 -279 57 -56 166 -131 177 -121 2 3 0 17 -6 32
-5 15 -21 105 -35 199 -29 200 -33 217 -50 217 -19 0 -83 77 -95 116 -14 42
-25 43 -45 3z"/>
<path d="M4908 5206 c-21 -43 -74 -103 -98 -111 -24 -8 -24 -9 -54 -201 -14
-88 -31 -179 -39 -202 -18 -52 -11 -53 63 -10 125 71 229 215 252 349 14 80 7
109 -32 131 -17 10 -38 31 -48 48 -9 16 -20 30 -23 30 -3 0 -13 -15 -21 -34z"/>
<path d="M3290 5175 c-24 -25 -52 -48 -62 -51 -51 -16 23 -232 114 -330 22
-24 44 -44 49 -44 19 0 10 176 -12 246 -12 38 -27 104 -33 147 l-11 77 -45
-45z"/>
<path d="M4617 5137 c-3 -35 -18 -95 -32 -133 -20 -52 -28 -95 -32 -173 l-6
-105 32 24 c63 44 137 170 167 282 l14 53 -28 19 c-15 11 -43 37 -63 58 -20
21 -38 38 -41 38 -3 0 -8 -29 -11 -63z"/>
<path d="M2170 4890 c0 -82 -16 -170 -31 -170 -11 0 -41 45 -73 108 -14 28
-29 52 -33 52 -10 0 17 -507 38 -690 23 -206 95 -469 177 -644 37 -79 124
-220 143 -232 14 -8 12 7 -26 222 -99 554 -117 713 -120 1029 -3 257 -3 261
-29 315 -14 30 -26 60 -26 67 0 6 -4 15 -10 18 -6 4 -10 -23 -10 -75z"/>
<path d="M5783 4913 c-3 -10 -17 -43 -31 -73 -23 -51 -25 -70 -33 -287 -12
-337 -26 -436 -153 -1068 -24 -121 -42 -221 -41 -223 2 -2 33 41 69 95 197
297 287 632 326 1211 5 85 10 179 10 209 l0 56 -27 -50 c-45 -80 -70 -110 -83
-97 -14 14 -33 154 -28 207 4 40 1 47 -9 20z"/>
<path d="M1062 4887 c-19 -44 -59 -191 -87 -313 -64 -288 -93 -565 -102 -969
-5 -253 5 -723 14 -640 29 260 133 729 230 1028 l35 109 -16 94 c-18 103 -42
361 -54 579 -7 122 -10 136 -20 112z"/>
<path d="M2682 4779 c9 -151 34 -252 93 -376 45 -95 128 -223 145 -223 9 0
-15 96 -45 180 -22 63 -52 185 -60 247 -4 29 -16 64 -26 78 -22 27 -99 187
-99 204 0 6 -3 11 -8 11 -4 0 -4 -55 0 -121z"/>
<path d="M5243 4792 c-17 -37 -45 -87 -62 -112 -19 -30 -36 -74 -46 -125 -9
-44 -39 -147 -66 -229 -28 -82 -49 -156 -47 -164 3 -16 99 113 146 198 65 116
120 343 110 457 l-3 41 -32 -66z"/>
<path d="M6921 4835 c-27 -306 -56 -550 -83 -690 l-21 -111 26 -84 c87 -286
203 -870 208 -1045 l1 -40 8 40 c4 22 14 177 20 345 23 557 -3 972 -85 1333
-25 110 -73 272 -74 252z"/>
<path d="M2430 4715 c-1 -66 -5 -128 -9 -139 -6 -17 -11 -14 -37 20 -17 22
-48 68 -68 104 l-38 65 6 -120 c9 -194 64 -419 157 -641 55 -132 158 -348 164
-343 2 3 -7 85 -21 184 -31 230 -44 410 -37 527 4 84 2 100 -22 163 -15 39
-42 122 -60 185 l-34 115 -1 -120z"/>
<path d="M3000 4775 c0 -79 92 -255 194 -370 l35 -40 -16 50 c-40 128 -53 182
-53 217 0 32 -5 41 -43 67 -24 16 -60 48 -80 70 l-37 41 0 -35z"/>
<path d="M5494 4677 c-23 -67 -50 -149 -62 -182 -16 -47 -23 -103 -31 -255 -6
-120 -22 -269 -41 -389 -17 -107 -29 -199 -27 -205 7 -20 195 377 237 499 73
213 115 411 108 513 l-3 54 -37 -64 c-39 -67 -82 -118 -100 -118 -7 0 -9 41
-6 135 2 74 4 135 4 135 -1 -1 -19 -56 -42 -123z"/>
<path d="M4904 4733 c-29 -29 -63 -57 -77 -62 -21 -8 -26 -19 -32 -62 -4 -28
-22 -97 -41 -152 -30 -89 -31 -98 -13 -81 32 28 122 152 157 214 29 52 67 171
60 189 -2 4 -26 -16 -54 -46z"/>
<path d="M1510 3916 c0 -92 -5 -242 -11 -335 l-10 -168 31 -124 c97 -384 267
-763 473 -1053 117 -166 294 -356 456 -490 96 -79 258 -192 265 -185 2 2 -24
42 -58 89 -206 279 -441 660 -579 935 -137 274 -226 516 -293 792 -29 121 -42
154 -84 224 -57 94 -123 256 -155 381 -12 49 -25 91 -28 95 -4 3 -7 -69 -7
-161z"/>
<path d="M6406 3903 c-45 -140 -108 -278 -170 -372 -30 -45 -52 -94 -66 -147
-72 -266 -155 -482 -286 -743 -169 -338 -420 -728 -671 -1043 -30 -38 -50 -68
-45 -68 5 0 63 36 128 79 233 156 435 348 608 578 222 295 360 570 491 973
l47 145 2 357 c0 197 1 358 0 358 -1 0 -18 -53 -38 -117z"/>
<path d="M2017 3880 c-4 -68 -10 -126 -12 -129 -3 -2 -13 3 -24 13 -18 16 -18
16 -11 -26 24 -134 22 -448 -3 -448 -6 0 -42 32 -80 70 l-69 71 7 -43 c13 -74
82 -299 123 -400 103 -251 288 -485 518 -655 86 -63 212 -138 220 -130 3 2
-24 49 -59 103 -312 483 -503 969 -567 1444 -37 278 -35 270 -43 130z"/>
<path d="M5907 3870 c-64 -535 -266 -1051 -614 -1569 -46 -68 -81 -126 -79
-129 7 -6 113 54 226 128 114 75 311 269 384 379 62 93 145 251 187 356 26 66
109 325 109 342 0 2 -31 -27 -69 -66 -37 -39 -75 -71 -84 -71 -12 0 -17 17
-22 83 -6 73 6 290 21 372 5 28 5 29 -10 11 -9 -11 -18 -17 -21 -14 -4 3 -9
59 -13 124 l-8 119 -7 -65z"/>
<path d="M1177 3850 c-4 -14 -16 -65 -28 -115 -26 -111 -51 -176 -91 -238
l-31 -49 7 -218 c13 -424 50 -657 134 -845 l27 -59 7 44 c32 185 83 736 93
1001 l7 176 -34 45 c-36 47 -66 135 -78 228 -5 43 -8 50 -13 30z"/>
<path d="M6770 3766 c0 -69 -54 -208 -103 -263 -19 -22 -20 -34 -14 -335 5
-232 14 -388 35 -600 16 -158 31 -291 35 -294 8 -9 49 83 84 185 54 163 96
453 109 753 l6 167 -30 47 c-38 57 -67 141 -91 268 -21 106 -31 130 -31 72z"/>
<path d="M1334 3374 c-12 -66 3 -343 25 -439 72 -327 216 -592 446 -822 68
-68 128 -123 135 -123 6 0 9 3 7 8 -9 14 -200 466 -273 647 -40 99 -103 272
-140 385 -36 113 -72 219 -79 235 -15 36 -95 145 -106 145 -5 0 -11 -16 -15
-36z"/>
<path d="M6538 3280 c-43 -54 -63 -90 -84 -153 -77 -232 -173 -467 -351 -852
-169 -365 -158 -339 -133 -325 41 22 182 152 247 229 181 212 309 475 364 750
22 111 35 341 23 388 l-9 33 -57 -70z"/>
<path d="M1371 2680 c0 -8 4 -33 9 -55 5 -22 21 -123 37 -225 26 -177 28 -201
28 -555 0 -334 -3 -385 -23 -525 -40 -273 -118 -583 -206 -817 -18 -51 -31
-93 -26 -93 12 0 164 171 234 263 255 338 396 763 396 1191 l0 129 -95 98
c-130 134 -215 269 -305 486 -27 65 -49 111 -49 103z"/>
<path d="M1308 2674 c-5 -4 -8 -37 -8 -73 0 -155 -27 -281 -77 -366 -11 -20
-12 -20 -35 2 -13 12 -43 54 -68 92 -25 39 -48 71 -51 71 -3 0 -9 -96 -12
-212 -6 -230 -24 -369 -63 -506 -24 -86 -91 -235 -135 -301 l-23 -34 34 7
c170 33 342 233 423 491 54 173 62 234 61 470 -1 181 -4 233 -20 293 -10 41
-22 70 -26 66z"/>
<path d="M6603 2580 c-34 -97 -44 -187 -44 -400 0 -194 3 -225 25 -316 30
-121 63 -211 113 -307 51 -97 165 -212 255 -256 91 -45 106 -40 66 24 -66 105
-125 277 -147 430 -5 39 -13 182 -17 318 l-7 248 -32 -48 c-49 -71 -95 -123
-111 -123 -18 0 -48 61 -64 130 -7 30 -16 118 -19 195 -6 127 -7 137 -18 105z"/>
<path d="M6473 2451 c-98 -202 -227 -375 -355 -477 -35 -28 -36 -32 -40 -104
-7 -116 9 -354 32 -471 64 -335 220 -660 444 -927 63 -75 126 -141 126 -131 0
3 -11 39 -26 80 -223 650 -269 1311 -139 2013 14 76 24 140 23 141 -2 2 -31
-54 -65 -124z"/>
<path d="M1905 2223 c44 -108 84 -227 88 -265 5 -54 5 -54 -71 -39 -35 7 -42
6 -38 -6 11 -27 45 -290 56 -423 6 -74 13 -313 16 -530 3 -217 7 -415 10 -440
l6 -45 24 30 c49 62 125 214 163 330 106 320 128 644 65 988 l-16 89 -75 71
c-41 40 -109 114 -150 165 -75 92 -92 107 -78 75z"/>
<path d="M5952 2135 c-43 -57 -198 -216 -235 -241 -25 -17 -31 -32 -53 -144
-63 -307 -41 -693 55 -980 35 -104 131 -298 161 -325 20 -18 20 -17 20 31 0
128 21 705 30 834 15 202 40 388 75 538 5 22 4 22 -50 16 -46 -6 -56 -4 -61
11 -8 21 16 101 67 217 20 49 34 88 31 88 -4 0 -22 -21 -40 -45z"/>
</g>
</svg>
